<svg width="150" height="150" fill="none" xmlns="http://www.w3.org/2000/svg"><path d="M62.286 88.825L48 92l3.175-14.286A26.883 26.883 0 0148 65c0-14.912 12.088-27 27-27s27 12.088 27 27-12.088 27-27 27a26.883 26.883 0 01-12.714-3.175zm.783-5.705l1.763.945A21.478 21.478 0 0075 86.6 21.6 21.6 0 1053.4 65c0 3.602.878 7.069 2.538 10.168l.942 1.763-1.768 7.957 7.957-1.768z" fill="#F8B500"/><path d="M67.125 64.438a2.813 2.813 0 11-5.625 0 2.813 2.813 0 015.625 0zm7.875 0a2.813 2.813 0 11-5.625 0 2.813 2.813 0 015.625 0zm7.875 0a2.813 2.813 0 11-5.625 0 2.813 2.813 0 015.625 0z" fill="#F8B500"/><g filter="url(#a)"><path d="M75 97c17.673 0 32-14.327 32-32 0-17.673-14.327-32-32-32-17.673 0-32 14.327-32 32 0 17.673 14.327 32 32 32z" stroke="#F8B500" stroke-width="2"/></g><g filter="url(#b)"><path d="M74.5 104.5c22.091 0 40-17.909 40-40s-17.909-40-40-40-40 17.909-40 40 17.909 40 40 40z" stroke="#F9D069"/></g><filter id="a" x="38" y="28" width="74" height="74" filterUnits="userSpaceOnUse" color-interpolation-filters="sRGB"><feFlood flood-opacity="0" result="BackgroundImageFix"/><feBlend in="SourceGraphic" in2="BackgroundImageFix" result="shape"/><feGaussianBlur stdDeviation="2" result="effect1_foregroundBlur"/></filter><filter id="b" x="30" y="20" width="89" height="89" filterUnits="userSpaceOnUse" color-interpolation-filters="sRGB"><feFlood flood-opacity="0" result="BackgroundImageFix"/><feBlend in="SourceGraphic" in2="BackgroundImageFix" result="shape"/><feGaussianBlur stdDeviation="2" result="effect1_foregroundBlur"/></filter></svg>